<?xml version="1.0" standalone="no"?>
<!DOCTYPE svg PUBLIC "-//W3C//DTD SVG 20010904//EN"
 "http://www.w3.org/TR/2001/REC-SVG-20010904/DTD/svg10.dtd">
<svg version="1.0" xmlns="http://www.w3.org/2000/svg"
 width="1220.000000pt" height="1280.000000pt" viewBox="0 0 1220.000000 1280.000000"
 preserveAspectRatio="xMidYMid meet">
<metadata>
Created by potrace 1.15, written by Peter Selinger 2001-2017
</metadata>
<g transform="translate(0.000000,1280.000000) scale(0.100000,-0.100000)"
fill="#000000" stroke="none">
<path d="M6065 12263 c-1033 -41 -1997 -464 -2731 -1197 -335 -336 -576 -671
-788 -1096 -196 -395 -318 -775 -390 -1220 -36 -217 -46 -406 -46 -839 0
-1133 -62 -1738 -256 -2522 -169 -685 -276 -950 -744 -1839 -586 -1114 -718
-1462 -765 -2015 -5 -67 -4 -73 26 -118 57 -87 168 -143 390 -197 182 -44 623
-117 652 -107 6 2 -14 7 -46 11 -31 4 -55 11 -52 16 3 4 -18 11 -46 15 -27 4
-48 9 -46 11 2 3 94 -7 203 -21 781 -98 1810 -165 3154 -205 179 -5 339 -10
356 -10 29 0 35 -8 92 -105 361 -613 1077 -935 1757 -789 200 43 445 151 615
271 141 100 319 283 412 423 41 63 87 136 102 161 l26 47 187 6 c2195 78 3543
219 3958 416 98 47 109 63 113 180 3 66 1 100 -6 100 -6 0 -14 21 -17 48 -14
106 -59 313 -90 417 -105 346 -238 638 -625 1375 -453 862 -564 1116 -698
1595 -168 596 -265 1145 -313 1760 -6 77 -14 462 -19 855 -9 744 -13 826 -60
1109 -96 575 -309 1115 -637 1616 -283 431 -689 844 -1114 1135 -752 514
-1602 751 -2554 713z m-4938 -11079 c-3 -3 -12 -4 -19 -1 -8 3 -5 6 6 6 11 1
17 -2 13 -5z m71 -11 c-10 -2 -26 -2 -35 0 -10 3 -2 5 17 5 19 0 27 -2 18 -5z"/>
<path d="M1448 1103 c12 -2 30 -2 40 0 9 3 -1 5 -23 4 -22 0 -30 -2 -17 -4z"/>
<path d="M1538 1093 c7 -3 16 -2 19 1 4 3 -2 6 -13 5 -11 0 -14 -3 -6 -6z"/>
</g>
</svg>
